<?xml version="1.0" encoding="utf-8"?>
<!-- Generator: Adobe Illustrator 19.2.1, SVG Export Plug-In . SVG Version: 6.00 Build 0)  -->
<svg version="1.1" id="layer" xmlns="http://www.w3.org/2000/svg" xmlns:xlink="http://www.w3.org/1999/xlink" x="0px" y="0px"
	 viewBox="0 0 652 652" style="enable-background:new 0 0 652 652;" xml:space="preserve">
<style type="text/css">
	.st0{fill:#FEDA03;}
</style>
<path class="st0" d="M58.3,235.9c-20.6,0-37.3,16.7-37.3,37.3v95.6c0,20.6,16.7,37.3,37.3,37.3h95.4c20.6,0,37.3-16.7,37.3-37.3
	v-95.6c0-20.6-16.7-37.3-37.3-37.3H58.3z"/>
<path d="M138.6,320.8c5.3-1.4,10.1-5.5,10.1-13.6c0-13.6-11.3-16.8-25.9-16.8H64.9v61.2h24.4v-20.8h28.9c4.5,0,7.1,1.8,7.1,6.2v14.5
	h24.4v-15.3C149.6,328,145,322.7,138.6,320.8z"/>
<path class="st0" d="M122.2,307.5H89.3v8.4h32.9v0c0,0,0.1,0,0.1,0c2.3,0,4.1-1.9,4.1-4.2s-1.8-4.2-4.1-4.2
	C122.3,307.5,122.3,307.5,122.2,307.5L122.2,307.5z"/>
<path d="M528.6,334.8c0,17.9-10.3,30.2-27.8,30.2c-7.2,0-13.8-3-16.7-7.7v6.7h-14.6v-82.1h14.6V312c3.4-4.4,9.6-7.4,16.9-7.4
	C518.3,304.6,528.6,316.9,528.6,334.8z M483.2,334.8c0,10.6,6.1,17.5,15.5,17.5c9.3,0,15.4-7,15.4-17.5c0-10.6-6.1-17.5-15.4-17.5
	C489.3,317.3,483.2,324.2,483.2,334.8z M320.6,364l-17.8-36.3c8-3.9,12.7-11.7,12.7-20.9c0-14.6-10.3-24-26.2-24h-38.7l0.1,81.2
	h15.7v-33.3h20.2l15.6,33.3H320.6z M266.5,296.4h20.4c8.1,0,12.7,3.9,12.7,10.4s-4.6,10.3-12.7,10.3h-20.4V296.4z M368.5,305.6h14.6
	V364h-14.6v-6.7c-2.9,4.6-9.4,7.7-16.7,7.7c-17.5,0-27.8-12.3-27.8-30.2c0-17.9,10.3-30.2,27.6-30.2c7.3,0,13.5,3,16.9,7.4V305.6z
	 M338.5,334.8c0,10.6,6.1,17.5,15.4,17.5c9.4,0,15.5-7,15.5-17.5c0-10.6-6.1-17.5-15.5-17.5C344.6,317.3,338.5,324.2,338.5,334.8z
	 M434.7,305.6l-0.9,14.2c-2.1-0.9-4.9-1.4-7.4-1.4c-8.2,0-15.6,6.8-15.6,24.2V364h-14.6v-58.5h14.6v10.7
	c2.9-6.6,10.5-11.6,17.6-11.6C430.4,304.6,432.9,305,434.7,305.6z M456.6,364H442v-58.5h14.6V364z M538.5,364h14.6v-82.1h-14.6V364z
	 M621,332.8c0-13.6-9.6-28.2-29.3-28.2c-19.3,0-28.8,15-28.8,30.2c0,15.2,10.3,30.2,29.6,30.2c13.7,0,23.8-6.5,27.1-17.5l-13.7-3.7
	c-1.5,5.7-6.4,8.9-13.2,8.9c-8.3,0-14-5.2-15.3-14h43.3C620.9,337.5,621,334.9,621,332.8z M577.9,327.9c1.6-7.9,6.7-12.2,13.9-12.2
	c8.5,0,13,5.2,13.7,12.2H577.9z M440.3,284.9c0-3.7,3-6.7,6.7-6.7h4.8c3.7,0,6.7,3,6.7,6.7v4.8c0,3.7-3,6.7-6.7,6.7h-4.8
	c-3.7,0-6.7-3-6.7-6.7V284.9z"/>
</svg>
