<?xml version="1.0" encoding="UTF-8"?>
<svg version="1.1" xmlns="http://www.w3.org/2000/svg" width="1520" height="1520">
<path d="M0 0 C1.3610083 0.8355542 1.3610083 0.8355542 2.74951172 1.68798828 C25.06589517 15.4480053 46.57626998 30.55906539 67 47 C67.63647461 47.51030762 68.27294922 48.02061523 68.92871094 48.54638672 C82.49945804 59.43808687 95.70285827 70.64963221 108.41748047 82.53076172 C109.94642685 83.95026177 111.48779276 85.35452971 113.03515625 86.75390625 C119.82437526 92.91119318 126.38367851 99.27930373 132.875 105.75 C133.67180176 106.54220947 134.46860352 107.33441895 135.28955078 108.15063477 C139.47627908 112.34834148 143.49787919 116.62594365 147.36474609 121.11962891 C149.95220975 124.0949417 152.67001327 126.94447751 155.375 129.8125 C159.97130909 134.72940574 164.37445922 139.73463848 168.58203125 144.9921875 C170.41211999 147.26871146 172.26139217 149.51906789 174.13671875 151.7578125 C203.32238473 186.66248813 228.53944774 224.89915736 250 265 C250.77029541 266.43206787 250.77029541 266.43206787 251.55615234 267.89306641 C290.28849151 340.218283 315.55611825 419.9955729 312 760 C311.84229126 760.65145996 311.68458252 761.30291992 311.52209473 761.97412109 C294.87500328 830.37488942 266.84809116 896.07889679 230 956 C229.1644458 957.3610083 229.1644458 957.3610083 228.31201172 958.74951172 C214.5519947 981.06589517 199.44093461 1002.57626998 183 1023 C182.48969238 1023.63647461 181.97938477 1024.27294922 181.45361328 1024.92871094 C170.56191313 1038.49945804 159.35036779 1051.70285827 147.46923828 1064.41748047 C146.04973823 1065.94642685 144.64547029 1067.48779276 143.24609375 1069.03515625 C137.08880682 1075.82437526 130.72069627 1082.38367851 124.25 1088.875 C123.45779053 1089.67180176 122.66558105 1090.46860352 121.84936523 1091.28955078 C117.65165852 1095.47627908 113.37405635 1099.49787919 108.88037109 1103.36474609 C105.9050583 1105.95220975 103.05552249 1108.67001327 100.1875 1111.375 C95.27059426 1115.97130909 90.26536152 1120.37445922 85.0078125 1124.58203125 C82.73128854 1126.41211999 80.48093211 1128.26139217 78.2421875 1130.13671875 C43.33751187 1159.32238473 5.10084264 1184.53944774 -35 1206 C-36.43206787 1206.77029541 -36.43206787 1206.77029541 -37.89306641 1207.55615234 C-105.37811044 1243.69643284 -179.273174 1268.01365514 -558.875 1260.2109375 C-617.59733323 1242.15148978 -673.60789563 1218.21818248 -726 1186 C-727.3610083 1185.1644458 -727.3610083 1185.1644458 -728.74951172 1184.31201172 C-751.06589517 1170.5519947 -772.57626998 1155.44093461 -793 1139 C-793.63647461 1138.48969238 -794.27294922 1137.97938477 -794.92871094 1137.45361328 C-808.49945804 1126.56191313 -821.70285827 1115.35036779 -834.41748047 1103.46923828 C-835.94642685 1102.04973823 -837.48779276 1100.64547029 -839.03515625 1099.24609375 C-845.82437526 1093.08880682 -852.38367851 1086.72069627 -858.875 1080.25 C-859.67180176 1079.45779053 -860.46860352 1078.66558105 -861.28955078 1077.84936523 C-865.47627908 1073.65165852 -869.49787919 1069.37405635 -873.36474609 1064.88037109 C-875.95220975 1061.9050583 -878.67001327 1059.05552249 -881.375 1056.1875 C-885.97130909 1051.27059426 -890.37445922 1046.26536152 -894.58203125 1041.0078125 C-896.41211999 1038.73128854 -898.26139217 1036.48093211 -900.13671875 1034.2421875 C-929.32238473 999.33751187 -954.53944774 961.10084264 -976 921 C-976.51353027 920.04528809 -977.02706055 919.09057617 -977.55615234 918.10693359 C-1016.28849151 845.781717 -1041.55611825 766.0044271 -1030.16015625 396.77929688 C-1004.18323347 312.15750297 -964.65648588 232.13919847 -909 163 C-908.48969238 162.36352539 -907.97938477 161.72705078 -907.45361328 161.07128906 C-896.56191313 147.50054196 -885.35036779 134.29714173 -873.46923828 121.58251953 C-872.04973823 120.05357315 -870.64547029 118.51220724 -869.24609375 116.96484375 C-863.08880682 110.17562474 -856.72069627 103.61632149 -850.25 97.125 C-849.45779053 96.32819824 -848.66558105 95.53139648 -847.84936523 94.71044922 C-843.65165852 90.52372092 -839.37405635 86.50212081 -834.88037109 82.63525391 C-831.9050583 80.04779025 -829.05552249 77.32998673 -826.1875 74.625 C-821.27540542 70.03318837 -816.27506724 65.63407143 -811.0234375 61.4296875 C-808.69633838 59.55958976 -806.39354747 57.67019091 -804.1015625 55.7578125 C-795.27474787 48.40043291 -786.31613865 41.29541512 -777.04785156 34.50195312 C-775.66962992 33.49112581 -774.29401827 32.47673125 -772.92089844 31.45898438 C-747.01062642 12.25644775 -719.42854037 -4.78605096 -691 -20 C-690.04528809 -20.51353027 -689.09057617 -21.02706055 -688.10693359 -21.55615234 C-620.28867124 -57.87488132 -546.5668409 -81.56847228 0 0 Z " fill="#8DC63F" transform="translate(1123,167)"/>
<path d="M0 0 C1.14790009 0.00060425 2.29580017 0.0012085 3.47848511 0.00183105 C21.67290534 0.02776322 39.6915011 0.43146903 57.8125 2.1875 C58.47844177 2.25066406 59.14438354 2.31382813 59.83050537 2.37890625 C147.54461533 10.72848935 232.04728745 36.77921429 408.8125 146.1875 C409.87622749 147.07691214 410.9400343 147.96622941 412.00390625 148.85546875 C417.86351163 153.7690142 423.64503419 158.75257425 429.29589844 163.90649414 C430.81459086 165.28301173 432.3414055 166.65074439 433.88330078 168.0012207 C441.66842104 174.85209177 448.96188551 182.18540875 456.28149414 189.52612305 C458.50229307 191.75229862 460.72840966 193.97305632 462.95507812 196.19335938 C464.39094584 197.62988771 465.82650343 199.06672611 467.26171875 200.50390625 C467.91605392 201.15621719 468.5703891 201.80852814 469.24455261 202.48060608 C473.63134886 206.88942549 477.75806451 211.47289831 481.8125 216.1875 C482.85799422 217.37881735 483.90466764 218.56910212 484.953125 219.7578125 C491.67238407 227.4227846 498.12689259 235.23158532 504.34960938 243.30371094 C505.90037204 245.30065432 507.47173299 247.28005155 509.046875 249.2578125 C523.17367645 267.07048186 535.93903133 285.80796902 547.8125 305.1875 C548.2151709 305.84121582 548.6178418 306.49493164 549.03271484 307.16845703 C594.48065367 381.11409881 623.78415663 463.60615977 643 640.8125 C642.99939575 641.93477997 642.9987915 643.05705994 642.99816895 644.21334839 C642.89000587 718.48774604 629.52189418 791.20441236 604.8125 861.1875 C604.58582642 861.83227295 604.35915283 862.4770459 604.12561035 863.14135742 C590.2553187 902.51492398 571.75721556 940.68946609 549.8125 976.1875 C549.25208008 977.0954834 548.69166016 978.0034668 548.11425781 978.93896484 C532.67581062 1003.82943371 515.69780117 1027.78062531 496.8125 1050.1875 C495.92308786 1051.25122749 495.03377059 1052.3150343 494.14453125 1053.37890625 C489.2309858 1059.23851163 484.24742575 1065.02003419 479.09350586 1070.67089844 C477.71698827 1072.18959086 476.34925561 1073.7164055 474.9987793 1075.25830078 C468.14790823 1083.04342104 460.81459125 1090.33688551 453.47387695 1097.65649414 C451.24770138 1099.87729307 449.02694368 1102.10340966 446.80664062 1104.33007812 C445.37011229 1105.76594584 443.93327389 1107.20150343 442.49609375 1108.63671875 C441.84378281 1109.29105392 441.19147186 1109.9453891 440.51939392 1110.61955261 C436.11057451 1115.00634886 431.52710169 1119.13306451 426.8125 1123.1875 C425.62118265 1124.23299422 424.43089788 1125.27966764 423.2421875 1126.328125 C415.58131258 1133.0437924 407.77697697 1139.49598558 399.70947266 1145.71582031 C397.67443184 1147.29461388 395.65487912 1148.89188006 393.63671875 1150.4921875 C322.71752515 1206.54821862 238.59600178 1245.68346944 144.0625 1268.5 C143.34584167 1268.6714856 142.62918335 1268.84297119 141.89080811 1269.01965332 C132.91755577 1271.15632652 123.96126999 1272.94807166 114.8125 1274.1875 C103.40262725 1200.1932887 123.6779094 1125.54583329 155.8125 1059.1875 C156.33070313 1058.10871582 156.84890625 1057.02993164 157.3828125 1055.91845703 C165.11640655 1039.87744005 173.62776757 1024.43923699 182.8125 1009.1875 C183.75800705 1007.6003763 184.70333135 1006.01314371 185.6484375 1004.42578125 C192.64460769 992.75404725 200.15044124 981.43076113 207.8125 970.1875 C208.38371582 969.34928711 208.95493164 968.51107422 209.54345703 967.64746094 C217.99431623 955.30047339 226.8896963 943.33457964 236.03369141 931.49365234 C237.60600996 929.45520586 239.17066771 927.41131046 240.73046875 925.36328125 C245.94975896 918.51793981 251.33168161 911.82473219 256.8125 905.1875 C258.25009302 903.41674218 259.68759167 901.64590774 261.125 899.875 C265.57164214 894.44021516 270.13036648 889.10743138 274.71484375 883.7890625 C276.73994119 881.43967024 278.7527473 879.0807486 280.75390625 876.7109375 C286.63677175 869.76033191 292.69273262 863.01704462 298.93725586 856.38891602 C302.484552 852.62292711 305.93506528 848.79810078 309.30859375 844.875 C311.42995517 842.49466718 313.70432732 840.28365522 315.98046875 838.05249023 C317.70938567 836.2924694 319.30707643 834.47859867 320.90234375 832.59765625 C325.31294966 827.52411724 330.08825999 822.8406674 334.875 818.125 C341.64043768 811.53484428 341.64043768 811.53484428 347.93359375 804.50390625 C350.55006654 801.36258988 353.47869535 798.8027224 356.5859375 796.15625 C361.03753122 792.22010397 365.1425075 787.91732022 369.3125 783.6875 C371.11207453 781.86210661 372.91411769 780.03914329 374.71875 778.21875 C375.50572266 777.42017578 376.29269531 776.62160156 377.10351562 775.79882812 C379.18831205 773.78918658 381.28982459 771.898466 383.484375 770.015625 C388.61998413 765.55723245 393.37114741 760.73461108 398.15625 755.90625 C399.13426419 754.92381622 400.11258251 753.94168512 401.09118652 752.95983887 C404.16781395 749.87189429 407.24046436 746.78001186 410.3125 743.6875 C413.87803903 740.09819537 417.44527928 736.51061492 421.01679993 732.92726135 C422.43008629 731.50758843 423.84027111 730.08483001 425.25036621 728.6619873 C429.74125523 724.15413514 434.27375602 719.78058426 439.12783813 715.66400146 C441.85270872 713.27582168 444.26784904 710.62906409 446.6875 707.9375 C447.19869385 707.37450195 447.7098877 706.81150391 448.23657227 706.23144531 C449.27485152 705.08787077 450.31174515 703.94303647 451.34716797 702.796875 C452.66467213 701.34985944 454.00481601 699.9235348 455.34765625 698.5 C462.2208809 691.16856037 468.28363801 683.30711968 474.27685547 675.24951172 C475.65483358 673.39920915 477.04683143 671.56044723 478.44140625 669.72265625 C502.49509467 637.5461379 520.27044818 596.2682488 514.91381836 555.41259766 C509.63838435 521.18464827 487.80063065 492.47727132 460.60986328 472.0144043 C421.1942538 443.19857526 375.23823758 426.43728831 328.71734619 413.08285522 C291.67278109 402.4457841 255.43576894 389.30291233 219.59213257 375.17990112 C214.0839521 373.02501131 208.54661086 371.03479493 202.93359375 369.171875 C183.57530812 362.64352726 183.57530812 362.64352726 179.54296875 355.44042969 C178.3448992 352.7447732 177.40844775 350.0148096 176.53320312 347.19970703 C175.30537846 343.7716139 173.37732985 340.83534799 171.375 337.8125 C170.99835205 337.23701416 170.6217041 336.66152832 170.23364258 336.06860352 C155.60226968 314.25518555 131.36124658 298.96957414 105.68212891 293.75488281 C100.41260476 292.75384194 95.12391216 291.93094064 89.8125 291.1875 C88.88179687 291.0534375 87.95109375 290.919375 86.9921875 290.78125 C62.74907573 287.9749734 37.57365751 290.7881903 14.1706543 297.29345703 C7.92639131 298.96881067 3.14407829 299.45544605 -3.1875 298.1875 C-4.20142822 297.99236816 -5.21535645 297.79723633 -6.26000977 297.59619141 C-8.61719461 297.12975794 -10.97242309 296.65336236 -13.32592773 296.16870117 C-26.03996618 293.55547875 -38.73529563 291.41330748 -51.625 289.875 C-52.62527222 289.75371231 -52.62527222 289.75371231 -53.64575195 289.62997437 C-144.68069028 278.71237034 -240.32760354 308.3971923 -343.15625 376.28125 C-351.85652249 383.20943734 -360.15894498 390.49381693 -368.1875 398.1875 C-369.00863281 398.96738281 -369.82976562 399.74726562 -370.67578125 400.55078125 C-376.33444867 406.0530779 -381.317733 411.98632568 -386.1875 418.1875 C-386.93870117 419.13206055 -386.93870117 419.13206055 -387.70507812 420.09570312 C-395.34473988 429.72112534 -402.25363461 439.42481261 -408.1875 450.1875 C-408.64479492 451.00395996 -409.10208984 451.82041992 -409.57324219 452.66162109 C-438.81835465 505.22378269 -445.75512007 563.55647012 -450.55859375 622.49853516 C-465.46917323 805.15613995 -465.46917323 805.15613995 -527.1875 1007.1875 C-542.35806409 988.9041079 -553.95492955 967.03296313 -565.1875 946.1875 C-565.88311035 944.89900146 -565.88311035 944.89900146 -566.59277344 943.58447266 C-590.39014582 899.28829487 -608.79849833 851.94283261 -621.1875 803.1875 C-621.5067041 801.93388672 -621.8259082 800.68027344 -622.15478516 799.38867188 C-630.49031986 766.37540202 -635.97319791 733.07604276 -639.1875 699.1875 C-639.30609375 697.96369629 -639.4246875 696.73989258 -639.546875 695.47900391 C-642.9061134 659.10225118 -642.71036032 621.54092949 -639.1875 585.1875 C-639.12433594 584.52155823 -639.06117188 583.85561646 -638.99609375 583.16949463 C-631.3645818 502.99887165 -609.07248561 425.98488769 -511.1875 254.1875 C-510.69991211 253.54973633 -510.21232422 252.91197266 -509.70996094 252.25488281 C-503.94382116 244.74047768 -497.94252335 237.44989174 -491.78515625 230.25390625 C-489.46097258 227.52979014 -487.22826416 224.74080007 -485 221.9375 C-473.53535946 207.95381214 -460.44537203 195.34804988 -447.6875 182.5625 C-446.98382294 181.8561441 -446.28014587 181.14978821 -445.55514526 180.42202759 C-443.50850113 178.3694844 -441.45804807 176.3208274 -439.40625 174.2734375 C-438.79830093 173.66351456 -438.19035187 173.05359161 -437.5639801 172.42518616 C-433.26649251 168.1503322 -428.78461334 164.13668663 -424.1875 160.1875 C-423.09339878 159.23738346 -421.9995856 158.28693496 -420.90625 157.3359375 C-406.15701433 144.59765138 -390.99965375 132.58334927 -375.1875 121.1875 C-374.08656006 120.39230957 -374.08656006 120.39230957 -372.96337891 119.58105469 C-350.70165725 103.54698558 -327.35541332 89.1670697 -303.1875 76.1875 C-302.21490234 75.66430176 -301.24230469 75.14110352 -300.24023438 74.60205078 C-225.7224575 34.73112785 -143.22719627 10.18769146 -59.0625 2.5 C-58.39688049 2.43906158 -57.73126099 2.37812317 -57.04547119 2.31533813 C-52.4291179 1.898971 -47.81015331 1.52589933 -43.1875 1.1875 C-42.51516327 1.1380423 -41.84282654 1.08858459 -41.15011597 1.03762817 C-27.44092395 0.06672108 -13.73882418 -0.01340046 0 0 Z " fill="#F8E887" transform="translate(759.1875,117.8125)"/>
<path d="M0 0 C1.00111816 0.26490234 1.00111816 0.26490234 2.02246094 0.53515625 C21.68757893 5.88486089 38.31001782 17.14876068 53 31 C53.73863281 31.66257812 54.47726562 32.32515625 55.23828125 33.0078125 C76.86140782 53.20988102 89.13919477 84.62787499 90.28125 113.8359375 C91.08197144 148.70068355 80.00016352 180.30867966 56.02709961 205.87939453 C33.11440726 229.75365554 2.20942299 243.51441511 -30.90087891 244.28320312 C-47.75778222 244.45653889 -63.1513481 241.62644039 -79 236 C-80.02351562 235.64292969 -81.04703125 235.28585937 -82.1015625 234.91796875 C-105.61587475 225.94957203 -125.50694254 207.94526706 -139 187 C-139.39461426 186.3905957 -139.78922852 185.78119141 -140.19580078 185.15332031 C-156.85573925 158.90171276 -162.473822 125.68752599 -156.3125 95.25 C-155.61723051 92.1438851 -154.83714061 89.07067055 -154 86 C-153.82339844 85.3311377 -153.64679687 84.66227539 -153.46484375 83.97314453 C-145.14768559 53.4075883 -123.27992953 27.50092195 -96.125 11.8125 C-66.76983952 -4.66893827 -32.50863194 -8.92915584 0 0 Z " fill="#FFFFFE" transform="translate(703,482)"/>
<path d="M0 0 C1.00202454 0.00149048 2.00404907 0.00298096 3.03643799 0.0045166 C19.37173789 0.04801421 35.32697262 0.86631329 51.5 3.3125 C52.50466309 3.45703613 53.50932617 3.60157227 54.54443359 3.75048828 C106.34777551 11.28931467 157.48190296 27.50422756 201.5 56.3125 C202.25023437 56.80298828 203.00046875 57.29347656 203.7734375 57.79882812 C221.20178419 69.28569299 237.67878291 82.05593938 253.80078125 95.296875 C257.36289311 98.21666938 260.98727787 101.05039785 264.625 103.875 C269.97598003 108.03922503 275.13378021 112.38938895 280.25268555 116.83447266 C284.22331275 120.26538684 288.28628937 123.54078813 292.4375 126.75 C298.16247541 131.18083622 303.64996796 135.83796969 309.09423828 140.6081543 C312.77822888 143.83297108 316.50426468 146.98372947 320.3125 150.0625 C324.67946676 153.5973564 328.84648885 157.30389749 332.99609375 161.08984375 C335.45725971 163.2745605 337.98660566 165.32749424 340.5625 167.375 C346.35956623 172.0604129 351.74312942 177.14640934 357.13500977 182.28930664 C360.72184693 185.70921513 364.34118362 189.06928679 368.0546875 192.3515625 C374.59690167 198.21461278 380.794836 204.42129215 387.00463867 210.63183594 C389.05693424 212.68194018 391.11711915 214.72388751 393.17773438 216.765625 C399.65576123 223.21619555 405.86948145 229.66867894 411.53588867 236.85205078 C413.48043923 239.28799615 415.51520887 241.59839345 417.609375 243.90625 C421.59758727 248.34811648 425.19945411 253.0169575 428.75 257.8125 C429.39622314 258.68197266 430.04244629 259.55144531 430.70825195 260.44726562 C432.64606313 263.06377591 434.57470238 265.68677233 436.5 268.3125 C437.04769043 269.05628906 437.59538086 269.80007813 438.15966797 270.56640625 C445.81137804 281.00252197 452.59349434 291.83044538 459.13330078 302.9921875 C460.73994547 305.71986723 462.38118815 308.42521121 464.02734375 311.12915039 C511.9757285 390.12240791 535.99472643 479.6216265 531.5 650.3125 C529.85 650.3125 528.2 650.3125 526.5 650.3125 C526.34538803 649.44761711 526.34538803 649.44761711 526.18765259 648.56526184 C515.32881726 587.92891736 502.54405261 527.95721601 483.5 469.3125 C483.2655719 468.58730164 483.0311438 467.86210327 482.78961182 467.1149292 C461.79655629 402.25419684 434.58405749 338.82123144 399.5 280.3125 C398.90509766 279.31911621 398.31019531 278.32573242 397.69726562 277.30224609 C390.20102768 264.81594489 382.51172748 252.47428243 374.5 240.3125 C373.82839844 239.28511719 373.15679688 238.25773438 372.46484375 237.19921875 C363.67272106 223.85757878 354.41758957 210.84084577 344.5 198.3125 C343.76265625 197.38050781 343.0253125 196.44851563 342.265625 195.48828125 C337.42037017 189.46607622 332.31044715 183.74669601 327.0546875 178.0859375 C324.98748759 175.84172965 322.9796492 173.57064141 321 171.25 C314.13447087 163.34723266 306.54499526 156.0035173 298.5 149.3125 C297.96310547 148.86181152 297.42621094 148.41112305 296.87304688 147.94677734 C227.58936377 89.94484905 130.67008645 57.63183296 -42.43579102 14.23022461 C-43.34530014 14.04938324 -44.25480927 13.86854187 -45.19187927 13.68222046 C-46.89642896 13.34365969 -48.60192401 13.00981113 -50.30848694 12.68154907 C-53.96503252 11.95282436 -57.28727468 11.26219913 -60.5 9.3125 C-60.17 7.9925 -59.84 6.6725 -59.5 5.3125 C-39.68478747 1.46239394 -20.17887068 -0.0747848 0 0 Z " fill="#FFFFFE" transform="translate(831.5,153.6875)"/>
<path d="M0 0 C18.08375585 17.19612419 27.43174766 38.8240952 28.7109375 63.60839844 C29.25043544 88.24225993 18.80291625 110.49051687 2.140625 128.23046875 C-14.7010764 144.42140889 -36.8760604 153.05725757 -60.234375 153.10546875 C-84.46313485 152.3442369 -105.23829847 143.29495724 -122.234375 126.10546875 C-123.04777344 125.30238281 -123.86117187 124.49929688 -124.69921875 123.671875 C-139.95511204 107.79009891 -146.76674019 86.23148736 -147.484375 64.54296875 C-146.71233951 40.20114373 -137.58066232 19.03168928 -120.234375 2.10546875 C-119.43257812 1.29464844 -118.63078125 0.48382812 -117.8046875 -0.3515625 C-105.74898527 -11.95270546 -89.70552211 -19.23592309 -73.234375 -21.89453125 C-72.52925781 -22.01699219 -71.82414063 -22.13945313 -71.09765625 -22.265625 C-45.6235159 -25.76885992 -18.90264354 -17.2969474 0 0 Z " fill="#595A5C" transform="translate(728.234375,537.89453125)"/>
<path d="M0 0 C0.66 0.33 1.32 0.66 2 1 C-0.41918661 6.93559995 -6.09102823 10.17907854 -11 14 C-11.6398584 14.50273438 -12.2797168 15.00546875 -12.93896484 15.5234375 C-34.71944663 32.61025411 -58.09960348 46.59246929 -82.48535156 59.64648438 C-84.71589675 60.84708074 -86.93417448 62.06660833 -89.1484375 63.296875 C-158.03304386 101.22934302 -244.37156941 127.710277 -395.6953125 120.62890625 C-422.19129707 112.69927615 -448.75332105 99.31031888 -467 78 C-467 77.34 -467 76.68 -467 76 C-462.58982887 76.57771614 -459.6407112 78.24409226 -455.875 80.5625 C-428.93829975 96.5038165 -396.97107904 103.83137518 -366 106 C-365.21334961 106.05639648 -364.42669922 106.11279297 -363.61621094 106.17089844 C-328.51163985 108.54872309 -292.81094582 107.13849709 -258 102 C-256.73623535 101.8148584 -255.4724707 101.6297168 -254.17041016 101.43896484 C-166.79181275 88.41696199 -69.24356343 55.93743091 0 0 Z " fill="#595A5C" transform="translate(1235,783)"/>
<path d="M0 0 C0.84046875 0.76828125 1.6809375 1.5365625 2.546875 2.328125 C3.38734375 3.07578125 4.2278125 3.8234375 5.09375 4.59375 C16.23478985 15.0427998 23.90731127 28.22921569 29.546875 42.328125 C29.546875 42.988125 29.546875 43.648125 29.546875 44.328125 C26.00711076 42.96275321 22.6289861 41.41906724 19.2421875 39.7109375 C-31.92801356 14.24072826 -92.38913994 -8.49857744 -149.453125 -15.671875 C-118.92395141 -46.20104859 -28.7430511 -25.00135214 0 0 Z " fill="#149A49" transform="translate(912.453125,433.671875)"/>
<path d="M0 0 C5.54514022 4.10042936 9.31697393 9.28769601 11 16 C12.11592171 24.99053905 11.44488478 32.57142604 6 40 C0.15637165 46.40081152 -6.59283066 49.57590829 -15.1875 50.25 C-23.1164907 49.73006618 -29.47685683 47.67978066 -35.23828125 42.05859375 C-41.46533842 34.7821877 -42.77731919 27.99421788 -42.4140625 18.4921875 C-41.55774286 11.27001996 -38.3179866 6.45124499 -33.0390625 1.54296875 C-23.10849712 -5.97153954 -10.63774001 -6.1357613 0 0 Z " fill="#FFFFFE" transform="translate(1129,703)"/>
</svg>
