<svg width="22" height="24" viewBox="0 0 22 24" fill="none" xmlns="http://www.w3.org/2000/svg">
<path d="M21.5947 7.95938C21.7973 8.9225 21.821 9.91468 21.6647 10.8864C21.3267 16.3014 18.0237 19.7564 13.4777 21.9454C9.47766 23.8724 5.32566 23.3514 1.53866 20.8814C1.20239 20.7064 0.898106 20.4758 0.638664 20.1994C0.425723 20.031 0.282544 19.7899 0.236664 19.5224C-0.608336 17.4964 1.00566 17.3744 1.99766 17.7764C4.69766 18.8714 6.58366 17.5414 8.53066 16.1104L9.00366 15.4794C10.0637 12.5794 11.1527 9.68838 12.1667 6.77138C12.2928 6.27667 12.5749 5.83571 12.9711 5.51371C13.3673 5.1917 13.8566 5.00576 14.3667 4.98338H14.5047C17.2557 3.71138 18.9177 4.46938 20.7227 6.48338C21.1274 6.89837 21.4265 7.4046 21.5947 7.95938Z" fill="#DA161F"/>
<path d="M14.0875 6.53741C14.0216 6.49136 13.9686 6.42917 13.9336 6.35678C13.8986 6.28439 13.8827 6.20424 13.8876 6.12397C13.8924 6.0437 13.9177 5.96602 13.9611 5.89834C14.0045 5.83066 14.0646 5.77525 14.1356 5.73741C15.2305 5.49307 16.2883 5.10504 17.2816 4.58341C18.1446 3.99141 19.1366 3.47341 19.2226 2.10441C19.2636 1.43741 17.6935 0.062409 17.3305 1.41541C17.1045 2.25341 16.7675 2.25941 16.3895 1.85741C16.269 1.71212 16.2069 1.52712 16.2154 1.33852C16.2239 1.14992 16.3024 0.971252 16.4356 0.837409C16.7086 0.555881 17.0386 0.33586 17.4035 0.19204C17.7684 0.0482196 18.1598 -0.0160889 18.5516 0.00340898C19.4166 0.057409 20.4516 0.903409 20.2176 2.84341C20.0797 3.58819 19.9984 4.34235 19.9746 5.09941C19.9262 6.21157 20.1935 7.31472 20.7456 8.28141C20.7484 8.33492 20.7381 8.38831 20.7157 8.43696C20.6932 8.48562 20.6592 8.52808 20.6167 8.56067C20.5742 8.59325 20.5243 8.615 20.4715 8.62401C20.4187 8.63303 20.3645 8.62905 20.3136 8.61241C20.0556 8.28241 20.0486 7.81241 19.2866 7.54041C18.5237 7.40388 17.7373 7.51313 17.0405 7.85241C16.6845 6.71041 16.3276 6.36841 15.1736 6.55241C14.8131 6.60563 14.4464 6.60057 14.0875 6.53741Z" fill="#86BB2F"/>
</svg>
